<svg width="76" height="51" viewBox="0 0 76 51" fill="none" xmlns="http://www.w3.org/2000/svg">
<path d="M22.092 25.712C22.932 25.964 23.674 26.342 24.318 26.846C24.99 27.35 25.55 27.938 25.998 28.61C26.474 29.254 26.838 29.94 27.09 30.668C27.342 31.368 27.468 32.054 27.468 32.726C27.468 33.93 27.23 35.036 26.754 36.044C26.306 37.052 25.606 37.934 24.654 38.69C23.73 39.418 22.54 39.992 21.084 40.412C19.628 40.804 17.906 41 15.918 41C12.754 41 9.996 40.58 7.644 39.74C5.32 38.872 3.192 37.64 1.26 36.044C1.176 35.904 1.19 35.75 1.302 35.582C1.442 35.386 1.638 35.218 1.89 35.078C2.142 34.938 2.408 34.84 2.688 34.784C2.996 34.728 3.276 34.756 3.528 34.868C4.06 35.4 4.592 35.75 5.124 35.918C5.656 36.058 6.314 36.058 7.098 35.918C7.826 35.778 8.428 35.512 8.904 35.12C9.408 34.7 9.856 34.056 10.248 33.188C10.668 32.32 11.088 31.186 11.508 29.786C11.956 28.386 12.474 26.622 13.062 24.494C13.65 22.394 14.378 20.574 15.246 19.034C16.142 17.494 17.22 16.192 18.48 15.128C18.312 15.128 18.13 15.128 17.934 15.128C17.766 15.1 17.57 15.086 17.346 15.086C16.422 15.086 15.512 15.212 14.616 15.464C13.72 15.716 12.866 16.094 12.054 16.598C11.27 17.102 10.556 17.718 9.912 18.446C9.268 19.146 8.75 19.958 8.358 20.882C8.274 20.938 8.19 20.952 8.106 20.924C8.05 20.868 8.036 20.77 8.064 20.63C8.4 19.762 8.904 18.922 9.576 18.11C10.248 17.298 11.06 16.584 12.012 15.968C12.964 15.352 14.042 14.862 15.246 14.498C16.45 14.134 17.724 13.952 19.068 13.952C19.264 13.952 19.446 13.952 19.614 13.952C19.782 13.952 19.95 13.966 20.118 13.994C20.706 13.658 21.322 13.364 21.966 13.112C22.61 12.832 23.296 12.608 24.024 12.44C24.164 12.44 24.234 12.496 24.234 12.608C24.234 12.692 24.164 12.762 24.024 12.818C23.016 13.07 22.092 13.49 21.252 14.078C23.716 14.386 25.55 15.086 26.754 16.178C27.986 17.27 28.602 18.544 28.602 20C28.602 20.84 28.434 21.61 28.098 22.31C27.762 23.01 27.3 23.612 26.712 24.116C26.152 24.62 25.466 25.012 24.654 25.292C23.87 25.572 23.016 25.712 22.092 25.712ZM16.842 40.37C18.102 40.37 19.222 40.202 20.202 39.866C21.21 39.502 22.05 39.026 22.722 38.438C23.394 37.822 23.898 37.108 24.234 36.296C24.598 35.484 24.78 34.602 24.78 33.65C24.78 30.01 22.54 27.588 18.06 26.384C17.976 26.3 18.004 26.174 18.144 26.006C18.312 25.81 18.522 25.628 18.774 25.46C19.026 25.264 19.292 25.11 19.572 24.998C19.852 24.886 20.076 24.844 20.244 24.872C20.524 24.984 20.762 25.068 20.958 25.124C21.182 25.18 21.462 25.208 21.798 25.208C22.302 25.208 22.792 25.096 23.268 24.872C23.772 24.648 24.206 24.354 24.57 23.99C24.962 23.598 25.27 23.136 25.494 22.604C25.746 22.072 25.872 21.498 25.872 20.882C25.872 19.538 25.368 18.348 24.36 17.312C23.352 16.276 21.84 15.604 19.824 15.296C18.032 17.144 16.632 19.958 15.624 23.738C14.896 26.454 14.168 28.652 13.44 30.332C12.74 31.984 11.998 33.286 11.214 34.238C10.458 35.162 9.646 35.792 8.778 36.128C7.91 36.464 6.93 36.66 5.838 36.716C7.266 37.78 8.932 38.662 10.836 39.362C12.74 40.034 14.742 40.37 16.842 40.37ZM35.4496 30.248C36.4296 30.248 37.1576 30.542 37.6336 31.13C38.1096 31.718 38.3476 32.404 38.3476 33.188C38.3476 34.28 38.1236 35.302 37.6756 36.254C37.2556 37.178 36.7236 38.004 36.0796 38.732C35.4636 39.432 34.7916 39.992 34.0636 40.412C33.3356 40.804 32.6776 41 32.0896 41C31.1376 41 30.4096 40.72 29.9056 40.16C29.4296 39.572 29.1916 38.83 29.1916 37.934C29.1916 37.122 29.3596 36.268 29.6956 35.372C30.0596 34.476 30.5216 33.65 31.0816 32.894C31.6696 32.138 32.3416 31.508 33.0976 31.004C33.8536 30.5 34.6376 30.248 35.4496 30.248ZM33.1396 39.698C34.0076 39.698 34.7356 39.25 35.3236 38.354C35.9396 37.43 36.2476 36.17 36.2476 34.574C36.2476 33.734 36.0796 33.034 35.7436 32.474C35.4076 31.914 34.9176 31.634 34.2736 31.634C33.3776 31.634 32.6496 32.068 32.0896 32.936C31.5296 33.804 31.2496 35.078 31.2496 36.758C31.2496 37.738 31.4176 38.48 31.7536 38.984C32.1176 39.46 32.5796 39.698 33.1396 39.698ZM39.7678 40.622C41.0278 35.806 42.4698 31.466 44.0938 27.602C45.7458 23.738 47.4818 20.448 49.3018 17.732C51.1218 15.016 52.9558 12.93 54.8038 11.474C56.6798 9.99 58.4578 9.248 60.1378 9.248C60.8378 9.248 61.3838 9.416 61.7758 9.752C62.1958 10.06 62.4758 10.452 62.6158 10.928C62.7838 11.376 62.8118 11.866 62.6998 12.398C62.5878 12.93 62.3778 13.406 62.0698 13.826C61.9858 13.91 61.9018 13.938 61.8178 13.91C61.7338 13.882 61.6918 13.812 61.6918 13.7C61.8318 13.14 61.6778 12.608 61.2298 12.104C60.7818 11.6 60.0678 11.348 59.0878 11.348C57.5758 11.348 56.1338 11.754 54.7618 12.566C53.4178 13.378 52.1018 14.736 50.8138 16.64C49.5258 18.516 48.2658 21.022 47.0338 24.158C45.8018 27.266 44.5418 31.144 43.2538 35.792C43.6738 35.036 44.1498 34.322 44.6818 33.65C45.2418 32.978 45.8438 32.39 46.4878 31.886C47.1318 31.382 47.8178 30.99 48.5458 30.71C49.2738 30.402 50.0298 30.248 50.8138 30.248C51.1498 30.248 51.3878 30.332 51.5278 30.5C51.6958 30.668 51.7798 30.864 51.7798 31.088C51.7798 31.452 51.6538 31.858 51.4018 32.306C50.8138 33.342 50.3378 34.406 49.9738 35.498C49.6098 36.59 49.4278 37.584 49.4278 38.48C49.4278 38.872 49.4698 39.194 49.5538 39.446C49.6378 39.698 49.7918 39.824 50.0158 39.824C50.2958 39.824 50.6038 39.684 50.9398 39.404C51.2758 39.096 51.5558 38.76 51.7798 38.396C51.8638 38.34 51.9478 38.354 52.0318 38.438C52.1158 38.494 52.1438 38.564 52.1158 38.648C51.7518 39.264 51.2338 39.81 50.5618 40.286C49.9178 40.762 49.3298 41 48.7978 41C48.3218 41 47.9298 40.874 47.6218 40.622C47.3138 40.342 47.1598 39.88 47.1598 39.236C47.1598 38.732 47.2018 38.2 47.2858 37.64C47.3978 37.052 47.5238 36.478 47.6638 35.918C47.8318 35.358 48.0138 34.812 48.2098 34.28C48.4338 33.72 48.6718 33.216 48.9238 32.768C49.0638 32.432 49.1338 32.194 49.1338 32.054C49.1338 31.802 48.9938 31.676 48.7138 31.676C48.1818 31.676 47.6078 31.886 46.9918 32.306C46.3758 32.698 45.7738 33.272 45.1858 34.028C44.5978 34.756 44.0238 35.638 43.4638 36.674C42.9318 37.71 42.4698 38.858 42.0778 40.118C42.0218 40.314 41.7978 40.51 41.4058 40.706C41.0138 40.902 40.5798 41 40.1038 41C39.8238 41 39.7118 40.874 39.7678 40.622ZM59.895 30.248C60.875 30.248 61.603 30.542 62.079 31.13C62.555 31.718 62.793 32.404 62.793 33.188C62.793 34.28 62.569 35.302 62.121 36.254C61.701 37.178 61.169 38.004 60.525 38.732C59.909 39.432 59.237 39.992 58.509 40.412C57.781 40.804 57.123 41 56.535 41C55.583 41 54.855 40.72 54.351 40.16C53.875 39.572 53.637 38.83 53.637 37.934C53.637 37.122 53.805 36.268 54.141 35.372C54.505 34.476 54.967 33.65 55.527 32.894C56.115 32.138 56.787 31.508 57.543 31.004C58.299 30.5 59.083 30.248 59.895 30.248ZM57.585 39.698C58.453 39.698 59.181 39.25 59.769 38.354C60.385 37.43 60.693 36.17 60.693 34.574C60.693 33.734 60.525 33.034 60.189 32.474C59.853 31.914 59.363 31.634 58.719 31.634C57.823 31.634 57.095 32.068 56.535 32.936C55.975 33.804 55.695 35.078 55.695 36.758C55.695 37.738 55.863 38.48 56.199 38.984C56.563 39.46 57.025 39.698 57.585 39.698Z" fill="#E98323"/>
<line x1="35" y1="30" x2="35" stroke="#364858" stroke-width="2"/>
<line x1="36" y1="1" x2="76" y2="1" stroke="#364858" stroke-width="2"/>
<line x1="75" y1="50" x2="75" stroke="#364858" stroke-width="2"/>
</svg>
